<?xml version="1.0" standalone="no"?>
<!DOCTYPE svg PUBLIC "-//W3C//DTD SVG 20010904//EN"
 "http://www.w3.org/TR/2001/REC-SVG-20010904/DTD/svg10.dtd">
<svg version="1.0" xmlns="http://www.w3.org/2000/svg"
 width="964.000000pt" height="964.000000pt" viewBox="0 0 964.000000 964.000000"
 preserveAspectRatio="xMidYMid meet">
<metadata>
Created by potrace 1.14, written by Peter Selinger 2001-2017
</metadata>
<g transform="translate(0.000000,964.000000) scale(0.100000,-0.100000)"
fill="#000000" stroke="none">
<path d="M829 7695 c-3 -2 -23 -7 -44 -11 -91 -14 -287 -90 -307 -119 -4 -5
-8 -6 -8 -2 0 7 -34 -16 -122 -84 -141 -108 -292 -352 -323 -521 -3 -12 -9
-45 -14 -73 -7 -32 -10 -789 -10 -2070 1 -1918 2 -2024 19 -2105 10 -47 26
-105 35 -130 23 -62 78 -174 87 -178 5 -2 8 -10 8 -18 0 -8 5 -14 10 -14 6 0
10 -4 10 -10 0 -15 27 -47 110 -131 103 -105 157 -143 270 -194 30 -14 62 -29
70 -34 8 -4 46 -16 84 -25 39 -10 79 -21 90 -24 37 -12 7986 -12 8041 -1 28 6
82 20 120 32 39 11 73 20 78 19 4 -1 7 3 7 10 0 6 3 9 6 5 6 -6 146 65 170 86
30 27 43 37 49 37 7 0 11 3 95 85 118 115 210 279 257 460 17 67 18 170 18
2125 0 1130 -4 2073 -8 2095 -52 264 -199 488 -412 630 -101 67 -165 96 -315
142 -51 16 -329 17 -4061 20 -2203 2 -4008 1 -4010 -2z m971 -1063 c88 -44
139 -114 154 -208 4 -20 8 -39 10 -43 3 -4 1 -13 -4 -20 -4 -8 -4 -27 0 -42 5
-16 5 -31 0 -34 -6 -3 -5 -16 0 -29 5 -13 6 -26 3 -29 -3 -3 -5 -35 -4 -71 2
-76 2 -70 2 -176 0 -44 0 -86 0 -92 3 -133 -71 -248 -186 -290 -41 -16 -83
-17 -363 -15 -174 2 -324 5 -332 8 -81 30 -138 79 -171 147 -15 33 -23 70 -25
125 -2 43 -6 82 -9 87 -3 6 -1 10 5 10 6 0 8 5 5 11 -9 13 -10 107 -2 115 3 3
1 18 -3 34 -4 16 -6 31 -3 34 8 8 7 102 -1 115 -4 6 -2 11 4 11 6 0 8 5 4 12
-8 12 -7 56 2 133 10 84 75 170 159 209 22 11 70 21 109 23 39 2 71 5 72 6 1
1 121 0 266 -3 248 -5 265 -6 308 -28z m1325 15 c61 -16 135 -80 164 -142 19
-40 35 -119 33 -155 -4 -49 -2 -122 3 -130 3 -6 3 -10 -2 -10 -4 0 -7 -42 -5
-92 2 -84 2 -117 2 -170 -1 -10 0 -33 1 -52 3 -96 -26 -172 -90 -235 -82 -79
-96 -81 -460 -78 -174 2 -323 6 -331 8 -107 35 -183 128 -196 239 -3 30 -8 58
-11 63 -2 4 0 7 6 7 6 0 6 11 1 30 -5 18 -5 32 1 36 5 3 6 12 0 21 -5 9 -5 29
-1 44 5 15 6 30 2 33 -7 8 -7 74 0 82 3 3 2 21 -2 40 -4 19 -4 36 1 39 4 3 4
16 -1 29 -4 12 -4 29 0 36 5 8 5 21 0 31 -5 9 -7 19 -4 21 2 3 5 23 5 44 2
121 93 237 205 263 47 11 636 9 679 -2z m1363 -2 c71 -21 151 -100 174 -170
14 -44 21 -191 19 -395 0 -8 0 -69 -1 -135 -1 -145 -17 -208 -71 -269 -46 -52
-110 -84 -182 -92 -28 -3 -55 -8 -59 -11 -5 -2 -8 -1 -8 4 0 4 -116 7 -257 6
-216 -2 -267 0 -311 14 -97 30 -176 125 -188 227 -8 64 -9 116 -4 116 6 0 2
150 -4 167 -3 7 -1 13 5 13 6 0 7 5 4 11 -4 5 -6 51 -5 102 2 105 2 105 -1
132 -11 106 73 232 184 276 61 25 625 28 705 4z m1357 2 c86 -23 173 -120 189
-210 4 -25 7 -153 5 -197 -1 -8 0 -31 1 -50 5 -105 -3 -382 -12 -411 -23 -77
-115 -170 -185 -187 -15 -4 -174 -7 -353 -7 l-325 0 -51 27 c-58 30 -107 82
-130 136 -20 46 -34 205 -20 220 2 2 1 16 -3 30 -5 15 -5 36 -1 47 4 11 4 32
-1 47 -4 15 -4 30 1 33 4 3 4 21 0 40 -4 19 -5 35 -1 35 5 0 6 69 1 131 -1 13
-1 26 -1 29 1 3 4 28 6 55 6 93 82 189 180 228 34 13 87 15 355 14 173 -2 328
-6 345 -10z m1361 -3 c54 -18 126 -68 142 -99 31 -60 44 -94 48 -130 6 -46 6
-41 5 -125 -1 -36 -1 -99 -1 -140 -1 -41 -1 -79 -1 -85 -1 -5 0 -21 0 -35 1
-14 1 -48 1 -77 0 -28 0 -55 1 -60 1 -4 1 -10 0 -13 -2 -3 -4 -25 -6 -50 -5
-63 -28 -112 -77 -163 -81 -83 -78 -82 -458 -82 l-335 0 -50 27 c-51 27 -88
61 -118 110 -19 30 -48 144 -40 152 3 3 5 36 4 73 -2 74 -2 94 -1 168 0 28 1
84 0 125 -2 213 14 272 89 340 84 76 95 78 442 79 259 1 314 -1 355 -15z
m1359 3 c58 -15 134 -79 161 -135 24 -50 42 -135 34 -158 -4 -10 -4 -29 1 -41
5 -12 5 -25 0 -27 -4 -3 -5 -26 -1 -50 4 -25 4 -50 0 -56 -4 -6 -4 -31 0 -55
4 -25 3 -45 -2 -45 -5 0 -4 -9 2 -20 8 -14 8 -20 0 -20 -6 0 -9 -4 -6 -8 7
-11 8 -153 2 -210 -9 -85 -74 -176 -156 -215 -43 -21 -57 -22 -370 -22 -339 0
-343 0 -400 28 -78 39 -134 122 -146 214 -3 26 -7 49 -8 51 -2 2 0 19 4 38 4
18 4 34 0 34 -5 0 -5 13 0 30 5 17 5 32 0 35 -5 3 -6 15 0 29 4 12 4 29 0 36
-5 8 -5 21 0 30 5 9 5 22 0 30 -5 8 -5 21 0 30 5 9 5 22 0 30 -5 8 -5 21 0 30
5 9 5 22 0 30 -5 8 -5 21 0 30 5 9 5 22 0 30 -5 8 -7 17 -4 21 2 4 6 32 8 63
8 113 89 213 197 245 40 11 639 9 684 -2z m-6118 -1483 c107 -34 184 -134 189
-246 1 -32 5 -62 9 -68 3 -5 1 -10 -5 -10 -6 0 -8 -5 -5 -11 4 -6 7 -33 6 -60
-1 -27 -1 -71 -2 -98 -1 -27 1 -53 4 -58 2 -4 1 -17 -3 -28 -4 -11 -4 -30 1
-42 5 -12 4 -25 -1 -28 -5 -3 -5 -18 0 -35 5 -16 5 -32 0 -35 -5 -3 -5 -18 -1
-33 4 -15 2 -49 -3 -77 -22 -102 -79 -172 -171 -212 -47 -21 -66 -22 -355 -23
-346 -1 -378 4 -454 71 -63 55 -101 150 -97 239 2 55 -1 175 -5 182 -3 4 0 8
6 8 8 0 8 6 0 20 -6 12 -7 20 -1 20 6 0 6 11 1 29 -4 16 -6 32 -3 35 3 3 5 31
3 63 -4 118 5 204 26 248 33 69 104 130 184 158 8 3 152 5 320 6 259 1 312 -1
357 -15z m1397 -12 c21 -13 45 -29 52 -37 8 -7 17 -15 21 -17 28 -12 98 -170
86 -191 -7 -12 -7 -176 -1 -183 3 -3 2 -21 -2 -40 -4 -19 -4 -36 0 -39 5 -3 5
-18 0 -34 -4 -16 -6 -31 -4 -34 8 -8 10 -73 3 -99 -4 -16 -3 -30 2 -34 5 -3 7
-9 5 -13 -3 -4 -7 -35 -10 -68 -6 -79 -28 -127 -86 -183 -80 -78 -94 -80 -469
-78 -325 3 -326 3 -366 27 -79 48 -133 120 -151 200 -6 29 -6 34 -4 71 0 14 1
42 1 63 0 20 0 43 0 50 0 6 0 37 0 67 0 30 -1 64 0 75 0 11 0 76 0 145 0 68 4
144 10 168 19 85 83 158 171 193 38 16 78 18 373 16 325 -2 331 -2 369 -25z
m1323 12 c115 -36 200 -159 193 -279 0 -16 -1 -37 -1 -45 0 -8 0 -42 0 -75 0
-33 0 -67 0 -75 1 -19 1 -63 -2 -240 -2 -120 -6 -152 -22 -185 -27 -56 -77
-107 -132 -136 -47 -24 -52 -24 -362 -27 -371 -4 -394 0 -474 80 -26 27 -55
65 -64 86 -16 38 -23 133 -23 312 1 115 1 110 1 240 -1 127 3 148 34 210 27
54 90 109 150 133 61 24 626 25 702 1z m1398 -16 c89 -47 140 -121 151 -218 3
-30 5 -61 5 -67 -1 -7 -1 -19 -2 -25 0 -7 0 -24 0 -38 1 -14 1 -32 0 -40 0 -8
0 -26 0 -40 2 -32 2 -91 1 -110 0 -8 0 -28 1 -45 2 -35 2 -61 0 -95 -1 -14 -1
-32 0 -40 3 -37 -12 -131 -27 -166 -21 -49 -107 -133 -145 -141 -16 -3 -32 -9
-34 -13 -3 -5 -145 -9 -317 -10 -266 -1 -319 2 -365 16 -55 17 -143 85 -143
109 0 7 -3 15 -7 17 -27 11 -45 103 -44 223 0 6 0 42 1 80 0 39 0 114 -1 168
0 55 2 101 4 104 3 2 1 17 -3 33 -4 16 -6 31 -3 34 3 3 7 24 8 48 3 61 32 116
86 168 80 77 88 79 459 77 l325 -2 50 -27z m1322 16 c102 -32 182 -133 189
-236 1 -27 5 -51 8 -56 2 -4 1 -14 -4 -21 -4 -8 -4 -26 0 -41 4 -15 4 -33 0
-40 -4 -7 -4 -25 0 -40 4 -15 4 -33 0 -40 -4 -7 -4 -25 0 -40 4 -15 4 -33 0
-40 -4 -7 -5 -24 -1 -39 4 -14 5 -37 1 -51 -4 -14 -3 -36 0 -50 4 -14 4 -34 0
-45 -4 -11 -4 -30 1 -41 4 -12 5 -25 1 -28 -3 -4 -8 -19 -10 -34 -10 -73 -97
-178 -170 -204 -28 -10 -118 -13 -367 -13 l-330 0 -51 27 c-54 28 -109 83
-126 127 -19 49 -35 127 -28 145 3 10 3 40 0 67 -4 27 -3 54 1 60 4 7 3 24 -1
39 -4 15 -4 33 0 40 4 7 4 26 0 41 -5 16 -5 29 0 29 5 0 5 13 0 29 -4 16 -6
32 -3 35 3 2 5 51 5 107 0 121 16 172 70 234 34 38 91 75 126 81 8 1 16 5 19
8 3 3 143 5 311 6 260 0 315 -2 359 -16z m-1317 -1496 c112 -67 157 -162 151
-318 -1 -14 -1 -32 0 -40 0 -8 0 -26 0 -40 -1 -14 -1 -32 0 -40 0 -8 0 -26 0
-40 -1 -14 -1 -32 0 -40 0 -8 0 -26 0 -40 -1 -14 -1 -32 0 -40 0 -8 0 -26 0
-40 -1 -14 -1 -32 0 -40 0 -8 -1 -50 -4 -92 -5 -93 -29 -146 -94 -206 -84 -77
50 -72 -1804 -72 -1872 0 -1719 -7 -1809 79 -79 75 -91 118 -90 321 1 58 1
111 1 118 0 6 0 28 0 47 0 63 0 89 0 155 -1 108 5 153 28 201 33 69 94 120
181 152 8 3 776 5 1705 4 l1690 -2 45 -27z"/>
</g>
</svg>
